<svg width="12" height="12" viewBox="0 0 12 12" fill="none" xmlns="http://www.w3.org/2000/svg">
    <path fill-rule="evenodd" clip-rule="evenodd" fill="yellow"
        d="M6.6045 1.55107C6.3569 1.04938 5.6415 1.04938 5.3939 1.55107L4.21494 3.93993L1.57868 4.323C1.02503 4.40345 0.803955 5.08385 1.20458 5.47435L3.1122 7.3338L2.66187 9.95945C2.5673 10.5108 3.14607 10.9313 3.64126 10.671L5.9992 9.43135L8.35715 10.671C8.85235 10.9313 9.4311 10.5108 9.33655 9.95945L8.8862 7.3338L10.7939 5.47435C11.1945 5.08385 10.9734 4.40345 10.4198 4.323L7.7835 3.93993L6.6045 1.55107ZM5.9992 2.01927L4.87004 4.30721C4.77172 4.50644 4.58166 4.64452 4.36181 4.67647L1.83691 5.04335L3.66394 6.8243C3.82303 6.97935 3.89563 7.20275 3.85807 7.42175L3.42677 9.93645L5.6851 8.74915C5.88175 8.64575 6.11665 8.64575 6.3133 8.74915L8.57165 9.93645L8.14035 7.42175C8.1028 7.20275 8.1754 6.97935 8.33445 6.8243L10.1615 5.04335L7.6366 4.67647C7.41675 4.64452 7.2267 4.50644 7.1284 4.30721L5.9992 2.01927Z"
         />
    <path
        d="M4.87004 4.30721L5.9992 2.01927L7.1284 4.30721C7.2267 4.50644 7.41675 4.64452 7.6366 4.67647L10.1615 5.04335L8.33445 6.8243C8.1754 6.97935 8.1028 7.20275 8.14035 7.42175L8.57165 9.93645L6.3133 8.74915C6.11665 8.64575 5.88175 8.64575 5.6851 8.74915L3.42677 9.93645L3.85807 7.42175C3.89563 7.20275 3.82303 6.97935 3.66394 6.8243L1.83691 5.04335L4.36181 4.67647C4.58166 4.64452 4.77172 4.50644 4.87004 4.30721Z"
        fill="yellow" stroke = "yellow" />
</svg>